<svg id="Layer_1" data-name="Layer 1" xmlns="http://www.w3.org/2000/svg" viewBox="0 0 315 69"><polygon points="35.45 52.28 33.4 52.28 33.4 64.5 41.62 64.5 41.62 63.48 35.45 63.48 35.45 52.28"/><path d="M48.52,52c-3.8,0-6.15,2.44-6.15,6.37s2.35,6.35,6.15,6.35,6.16-2.44,6.16-6.35S52.32,52,48.52,52Zm0,.9c2.57,0,3.88,1.84,3.88,5.47s-1.27,5.45-3.88,5.45-3.89-1.78-3.89-5.45S45.94,52.94,48.52,52.94Z"/><polygon points="66.61 61.47 59.71 52.28 57.76 52.28 57.76 64.5 58.88 64.5 58.8 54.53 66.35 64.5 67.67 64.5 67.67 52.28 66.55 52.28 66.61 61.47"/><path d="M75.86,52.28H71.52V64.5h4.35c4.15,0,6.53-2.21,6.53-6.07S80,52.28,75.86,52.28Zm-2.29,1h2.29c2.94,0,4.26,1.58,4.26,5.11s-1.27,5-4.25,5h-2.3Z"/><path d="M90.8,52c-3.79,0-6.15,2.44-6.15,6.37S87,64.76,90.8,64.76,97,62.32,97,58.41,94.61,52,90.8,52Zm0,.9c2.58,0,3.89,1.84,3.89,5.47s-1.27,5.45-3.89,5.45-3.88-1.78-3.88-5.45S88.22,52.94,90.8,52.94Z"/><polygon points="108.89 61.47 102 52.28 100.04 52.28 100.04 64.5 101.16 64.5 101.09 54.53 108.63 64.5 109.95 64.5 109.95 52.28 108.84 52.28 108.89 61.47"/><rect x="120.84" y="50.48" width="1.08" height="18.52"/><path d="M139.1,58.09a2.9,2.9,0,0,0,1.77-2.7c0-2-1.68-3.11-4.51-3.11H132.8V64.5h3.59c3.42,0,5.15-1.17,5.15-3.5A2.94,2.94,0,0,0,139.1,58.09Zm-2-.38h-2.39V53.3h1.6c1.71,0,2.51.69,2.51,2.18C138.8,57.55,137.48,57.71,137.08,57.71Zm-2.39,1h2.46c1.58,0,2.28.7,2.28,2.28,0,1.81-.84,2.48-3.13,2.48h-1.61Z"/><polygon points="146.62 58.84 151.98 58.84 151.98 57.83 146.62 57.83 146.62 53.3 152.46 53.3 152.46 52.28 144.57 52.28 144.57 64.5 152.93 64.5 152.93 63.48 146.62 63.48 146.62 58.84"/><path d="M163.71,56.05c0-2.36-1.79-3.77-4.78-3.77h-3.35V64.5h1.95V60h1.69l3.29,4.53h2.42l-3.66-4.91A3.63,3.63,0,0,0,163.71,56.05Zm-6.18-2.75h1.27c1.91,0,2.68.81,2.68,2.81,0,2.38-.95,2.86-2.5,2.86h-1.45Z"/><polygon points="169.31 52.28 167.26 52.28 167.26 64.5 175.47 64.5 175.47 63.48 169.31 63.48 169.31 52.28"/><rect x="177.83" y="52.28" width="2.05" height="12.23"/><polygon points="192.54 61.47 185.65 52.28 183.7 52.28 183.7 64.5 184.82 64.5 184.74 54.53 192.29 64.5 193.61 64.5 193.61 52.28 192.49 52.28 192.54 61.47"/><rect x="204.49" y="50.48" width="1.08" height="18.52"/><polygon points="215.48 53.3 222.66 53.3 215.28 63.79 215.28 64.5 225.23 64.5 225.23 63.48 217.93 63.48 225.28 53.03 225.28 52.28 215.48 52.28 215.48 53.3"/><path d="M236.47,60.12v.09c0,2.26-1.2,3.5-3.38,3.5s-3.18-1.17-3.18-3.59V52.28h-2v8.14c0,2.68,1.85,4.34,4.83,4.34s4.84-1.58,4.84-4.34V52.28h-1.12Z"/><path d="M249.4,56.05c0-2.36-1.79-3.77-4.78-3.77h-3.35V64.5h1.95V60h1.69l3.29,4.53h2.42L247,59.59A3.63,3.63,0,0,0,249.4,56.05Zm-6.18-2.75h1.27c1.91,0,2.68.81,2.68,2.81,0,2.38-.95,2.86-2.5,2.86h-1.45Z"/><rect x="252.95" y="52.28" width="2.05" height="12.23"/><path d="M268.46,61.82a4.94,4.94,0,0,1-4,2c-2.77,0-4.18-1.81-4.18-5.36S261.73,53,264.39,53a5.66,5.66,0,0,1,3.55,1.39l.25.23.49-.85-.14-.15A6.31,6.31,0,0,0,264.28,52c-3.72,0-6.22,2.6-6.22,6.48a5.85,5.85,0,0,0,6.24,6.24,5.5,5.5,0,0,0,4.87-2.31l.09-.16-.59-.79Z"/><polygon points="279.55 52.28 279.55 57.91 273.69 57.91 273.69 52.28 271.64 52.28 271.64 64.5 273.69 64.5 273.69 58.97 279.55 58.97 279.55 64.5 281.6 64.5 281.6 52.28 279.55 52.28"/><path d="M.1,3.22h18c-5.2,8.7-11.8,20.69-13.8,30.19l-.2.4h3.2l.1-.3c1.9-9.9,8-23.19,13-31.09l.1-.1V.52H.1Z"/><path d="M24.09,3.22h18c-5.29,8.6-11.89,20.69-13.89,30.19l-.1.5h3.1l.1-.3c1.9-9.9,8-23.19,13-31.09l.1-.1V.52H24.09Z"/><path d="M74.47.52h-11V33.81h11c10.9,0,17.2-6,17.2-16.49S85.27.52,74.47.52Zm0,31.79H66.38V2h8.09c9.2,0,13.8,5.2,13.8,15.2S83.77,32.31,74.47,32.31Z"/><rect x="98.67" y="0.52" width="2.9" height="33.29"/><path d="M133.36,33.81h3.2L123.16.52h-2.7l-13.7,33.29h1.7l4.5-10.9h16Zm-5-12.4h-14.8L121,3.22Z"/><polygon points="143.35 4.22 158.45 33.81 160.35 33.81 175.15 4.32 175.34 33.81 178.24 33.81 178.04 0.52 175.25 0.52 160.15 30.41 145.05 0.72 144.95 0.52 141.85 0.52 141.66 33.81 143.25 33.81 143.35 4.22"/><path d="M201.54,0c-10,0-16.2,6.6-16.2,17.2s6.2,17.09,16.2,17.09,16.29-6.5,16.29-17.09S211.53,0,201.54,0Zm0,1.3c8.19,0,13,5.8,13,15.9S209.93,33,201.54,33s-13-5.6-13-15.69S193,1.32,201.54,1.32Z"/><polygon points="249.22 29.51 227.63 0.52 224.73 0.52 224.73 33.81 226.43 33.81 226.33 3.82 248.62 33.71 248.82 33.81 250.82 33.81 250.82 0.52 249.12 0.52 249.22 29.51"/><path d="M270.92.52h-11V33.81h11c10.89,0,17.19-6,17.19-16.49S281.81.52,270.92.52Zm0,31.79h-8.1V2h8.1c9.19,0,13.89,5.1,13.89,15.2S280.21,32.31,270.92,32.31Z"/><path d="M305,15.92c-4.7-1.5-9.2-2.8-9.2-7.8,0-4.2,3.1-6.7,8.3-6.7a12.71,12.71,0,0,1,8.49,3.3l.4.4.6-1.3-.2-.2A12.1,12.1,0,0,0,304,0c-6.9,0-11.1,3.4-11.1,9,0,6.1,5.2,7.7,10.3,9.29,4.5,1.4,8.8,2.7,8.8,7.2s-3.5,7.4-9,7.4a13,13,0,0,1-10-4.3l-.3-.4-1,1.3.1.2c.1.2,3.3,4.8,11.3,4.8,7.1,0,11.79-3.9,11.79-9.7S309.91,17.42,305,15.92Z"/></svg>