<svg xmlns="http://www.w3.org/2000/svg" xmlns:xlink="http://www.w3.org/1999/xlink" id="Layer_1" x="0px" y="0px" viewBox="0 0 334.7 129" style="enable-background:new 0 0 334.7 129;" xml:space="preserve"><style type="text/css">	.st0{fill:none;stroke:#679882;stroke-miterlimit:3.864;}	.st1{fill:none;stroke:#679882;stroke-width:0.75;stroke-linecap:round;stroke-linejoin:round;}	.st2{fill:#231F20;}</style><g>	<line class="st0" x1="7" y1="68" x2="327.1" y2="68"></line>	<path class="st1" d="M141.6,24.1l0.8-0.2l1.2,0.3c0,0,3.4-0.3,4.2-0.1c1.6,0.5,2,0,2.5,0c0.5,0,3.6-0.4,5.8,0   c1.7,0.4,2.1-0.1,3-0.2c0.9-0.1,4.3-0.2,5.3,0c1,0.2,1.4,0.3,2.5,0.3c1.2,0,2.9-0.3,3.9-0.3c1,0,3,0,3.9,0.1   c0.8,0.1,1.4,0.3,2.1,0.3c0.8,0,2.4-0.5,3.6-0.4c1.2,0.1,2.7,0.1,3.3,0.1c0.2,0,0.8,0.2,1.6,0.1c0.8-0.1,1.3-0.2,1.8-0.2   c0.5,0,1.8-0.2,2.2,0c0.5,0.2,1,0.4,1.4,0.3c0.4-0.1,0.7-0.3,1.1-0.2c0.5,0.1,0.9,0.4,0.9,0.4v-1.6c0,0-1,0.5-1.5,0.3   c-0.5-0.2-0.4-0.4-0.9-0.3c-0.5,0.1-2.1,0.4-3,0.3c-0.9-0.1-1.3-0.4-2-0.3c-0.8,0.1-1.2,0.2-2.2,0.3c-1.1,0.1-2.6,0-3.8-0.1   c-1.2-0.1-1.9-0.3-2.4-0.2c-0.6,0.1-1-0.1-2,0.1c-0.8,0.2-2.9,0.1-3.4,0.1c-0.5,0-2,0-2.6-0.1c-0.7-0.1-1,0-1.6,0   c-0.7,0-1.7,0.1-2.6,0.2c-0.9,0.1-1.4,0-2.8,0c-1.4,0.1-3.1-0.2-3.5-0.3c0,0-0.5-0.2-0.8-0.1c-0.7,0.1-1.2,0.2-2,0.3   c-1,0.2-2.3,0.1-3.2,0.1c-0.9,0-1.5-0.2-2.3-0.3c-0.8-0.1,0.1-0.3-0.8-0.1c-0.9,0.2-2.4,0.4-2.8,0.4c-0.4,0-1.4,0-1.7-0.1   c-0.3-0.1-0.8-0.2-1.1-0.2c-0.6,0-0.8,0.2-1.2,0.1c-0.6-0.2-0.7-0.1-0.7-0.1V24.1z M174.7,17.5l2.5,6.3l-7.7,17.7l15.8-17.2   l-12.1,17.1l18.3-17.8l-6.2-5.7 M148.8,17.9l-5.5,5.3l0.1,1.1l17.7,17.2l-12.2-17.2l15.9,17.2l-7.6-17.9l2.2-5.8 M149.1,22.8   l10.5-5.2l7.5-2.4l7.6,2.3l10.6,5.4l-0.2-5.3l-7.5-2.5l-2.9,2.3l-7.6,5.5l-10.7-7.9l-7.2,2.6V22.8z M167.1,24.3l-2.3,17.1l2,4.9   h0.5l2.2-4.9L167.1,24.3z M152.7,15l28.8,0l11.2,7.9v1.6l-25.6,22.2l-25.3-22.4l-0.1-1.4L152.7,15z"></path>	<path class="st2" d="M15.7,62v-0.4c0.5-0.1,0.9-0.3,1.2-0.6c0.3-0.3,0.7-1.2,1.3-2.7l4.2-9.9h0.4l5,11.5c0.3,0.8,0.6,1.2,0.8,1.4   c0.2,0.2,0.5,0.3,1,0.4V62h-5.1v-0.4c0.6-0.1,1-0.1,1.1-0.2c0.2-0.1,0.3-0.3,0.3-0.6c0-0.1,0-0.3-0.1-0.5c-0.1-0.2-0.2-0.5-0.3-0.8   l-0.8-1.9h-5.3c-0.5,1.3-0.8,2.1-0.9,2.4c-0.1,0.3-0.1,0.5-0.1,0.7c0,0.3,0.1,0.6,0.4,0.7c0.2,0.1,0.5,0.1,1,0.2V62H15.7z    M24.4,56.8l-2.3-5.6l-2.3,5.6H24.4z"></path>	<path class="st2" d="M43.4,61.6c0.8-0.1,1.4-0.3,1.6-0.6c0.2-0.3,0.4-1,0.4-2v-8.2c0-0.7-0.1-1.2-0.3-1.4c-0.2-0.2-0.8-0.4-1.6-0.4   v-0.4h4l4.7,10.2l4.5-10.2h4V49c-0.8,0.1-1.2,0.2-1.5,0.4c-0.2,0.2-0.3,0.7-0.3,1.4v9c0,0.7,0.1,1.2,0.3,1.4   c0.2,0.2,0.7,0.3,1.5,0.4V62H55v-0.4c0.8-0.1,1.3-0.2,1.5-0.4c0.2-0.2,0.3-0.8,0.3-1.6v-9.1L51.6,62h-0.3l-5.1-11V59   c0,1.1,0.2,1.8,0.5,2.2c0.2,0.2,0.7,0.4,1.4,0.4V62h-4.8V61.6z"></path>	<path class="st2" d="M74.5,61.6c0.7-0.1,1.2-0.2,1.4-0.4c0.2-0.2,0.3-0.7,0.3-1.4v-9c0-0.7-0.1-1.2-0.3-1.4   c-0.2-0.2-0.7-0.4-1.5-0.4v-0.4h10.8l0.1,2.9h-0.5c-0.2-0.9-0.4-1.5-0.8-1.7c-0.3-0.3-1.1-0.4-2.3-0.4H79c-0.3,0-0.5,0.1-0.6,0.2   c-0.1,0.1-0.1,0.3-0.1,0.5v4.5h3.1c0.9,0,1.4-0.1,1.7-0.4c0.2-0.3,0.4-0.8,0.6-1.6h0.5v4.7h-0.5c-0.2-0.8-0.3-1.3-0.6-1.6   c-0.2-0.3-0.8-0.4-1.6-0.4h-3.1v5c0,0.4,0.1,0.6,0.4,0.7c0.3,0.1,1,0.1,2.3,0.1c1.4,0,2.4-0.1,3-0.4c0.7-0.3,1.2-1,1.8-2.2h0.6   L85.5,62H74.5V61.6z"></path>	<path class="st2" d="M100,61.6c0.8-0.1,1.3-0.2,1.5-0.5c0.2-0.2,0.3-0.8,0.3-1.6v-8.8c0-0.7-0.1-1.2-0.3-1.4   c-0.2-0.2-0.7-0.4-1.4-0.4v-0.4h5.6c1.2,0,2.1,0.1,2.9,0.4c1.5,0.6,2.2,1.6,2.2,3.1c0,1-0.3,1.8-1,2.3c-0.7,0.5-1.5,0.9-2.7,1.1   l4.2,5.1c0.3,0.3,0.5,0.5,0.8,0.7c0.3,0.1,0.6,0.2,1,0.3V62h-3.3l-4.8-6.2l-1.1,0.1v4c0,0.8,0.1,1.2,0.3,1.4   c0.2,0.2,0.7,0.3,1.5,0.4V62H100V61.6z M107,54.6c1.1-0.4,1.6-1.3,1.6-2.5c0-1.2-0.5-2-1.4-2.4c-0.5-0.2-1.2-0.3-2-0.3   c-0.6,0-0.9,0-1.1,0.1c-0.1,0.1-0.2,0.3-0.2,0.6v5C105.3,55,106.3,54.9,107,54.6"></path>	<path class="st2" d="M126.8,61.6c0.8-0.1,1.4-0.2,1.6-0.4c0.2-0.2,0.4-0.7,0.4-1.5v-9c0-0.7-0.1-1.2-0.4-1.4   c-0.2-0.2-0.8-0.3-1.6-0.4v-0.4h6V49c-0.8,0-1.4,0.2-1.6,0.4c-0.2,0.2-0.4,0.7-0.4,1.4v9c0,0.8,0.1,1.3,0.4,1.5   c0.2,0.2,0.8,0.3,1.6,0.4V62h-6V61.6z"></path>	<path class="st2" d="M156.1,48.7c0.8,0.2,1.2,0.3,1.3,0.3c0.2,0,0.4-0.1,0.5-0.2c0.2-0.1,0.3-0.3,0.4-0.5h0.4l0.2,4.5h-0.5   c-0.3-0.9-0.6-1.6-1.1-2.2c-0.8-1-1.9-1.6-3.3-1.6c-1.4,0-2.6,0.6-3.5,1.7c-0.9,1.1-1.3,2.7-1.3,4.6c0,1.8,0.5,3.2,1.4,4.3   c0.9,1.1,2.1,1.6,3.6,1.6c1,0,2-0.3,2.9-0.8c0.5-0.3,1.1-0.7,1.7-1.3l0.4,0.4c-0.4,0.6-1,1.1-1.7,1.5c-1.1,0.7-2.4,1.1-3.7,1.1   c-2.2,0-3.9-0.7-5.2-2.1c-1.2-1.3-1.8-2.9-1.8-4.8c0-2,0.6-3.6,1.9-5c1.3-1.4,3-2.1,5.1-2.1C154.6,48.4,155.3,48.5,156.1,48.7"></path>	<path class="st2" d="M173.3,62v-0.4c0.5-0.1,0.9-0.3,1.2-0.6c0.3-0.3,0.7-1.2,1.3-2.7l4.2-9.9h0.4l5,11.5c0.3,0.8,0.6,1.2,0.8,1.4   c0.2,0.2,0.5,0.3,1,0.4V62h-5.2v-0.4c0.6-0.1,1-0.1,1.1-0.2c0.2-0.1,0.3-0.3,0.3-0.6c0-0.1,0-0.3-0.1-0.5c-0.1-0.2-0.2-0.5-0.3-0.8   l-0.8-1.9H177c-0.5,1.3-0.8,2.1-0.9,2.4c-0.1,0.3-0.1,0.5-0.1,0.7c0,0.3,0.1,0.6,0.4,0.7c0.2,0.1,0.5,0.1,1,0.2V62H173.3z    M182,56.8l-2.3-5.6l-2.3,5.6H182z"></path>	<path class="st2" d="M201,61.6c0.8-0.1,1.4-0.3,1.6-0.6c0.2-0.3,0.4-1,0.4-2v-8.9l-0.3-0.3c-0.3-0.4-0.5-0.6-0.8-0.6   c-0.2-0.1-0.5-0.1-0.9-0.2v-0.4h3.5l7.8,9.7v-6.8c0-1.1-0.2-1.8-0.5-2.2c-0.2-0.2-0.7-0.4-1.4-0.4v-0.4h4.8V49   c-0.8,0.1-1.3,0.3-1.5,0.6c-0.3,0.3-0.4,1-0.4,2v10.7h-0.3l-9-11.1V59c0,1.1,0.2,1.8,0.5,2.2c0.2,0.2,0.7,0.4,1.4,0.4V62H201V61.6z   "></path>	<path class="st2" d="M256.5,48.7c0.8,0.2,1.2,0.3,1.3,0.3c0.3,0,0.5-0.1,0.6-0.2c0.1-0.1,0.2-0.3,0.3-0.5h0.4l0.2,4.3h-0.5   c-0.4-1-0.8-1.7-1.3-2.2c-0.8-0.8-1.8-1.3-3.1-1.3c-1.3,0-2.4,0.5-3.4,1.5c-1,1-1.5,2.6-1.5,4.9c0,1.9,0.5,3.3,1.5,4.4   c1,1,2.2,1.6,3.6,1.6c0.2,0,0.5,0,0.9-0.1c0.3,0,0.6-0.1,0.9-0.2c0.5-0.2,0.8-0.3,0.9-0.4c0.1-0.1,0.2-0.3,0.2-0.5V57   c0-0.8-0.1-1.3-0.3-1.5c-0.2-0.2-0.7-0.3-1.4-0.4v-0.4h5.2v0.4c-0.5,0-0.8,0.1-1,0.2c-0.3,0.2-0.4,0.6-0.4,1.3v4   c0,0.2-0.6,0.6-1.8,0.9c-1.2,0.4-2.3,0.6-3.3,0.6c-2,0-3.6-0.6-5-1.7c-1.5-1.3-2.2-3-2.2-5.1c0-1.9,0.6-3.5,1.8-4.8   c1.3-1.5,3-2.2,5.2-2.2C255,48.4,255.7,48.5,256.5,48.7"></path>	<path class="st2" d="M274.7,61.6c0.7-0.1,1.2-0.2,1.4-0.4c0.2-0.2,0.3-0.7,0.3-1.4v-9c0-0.7-0.1-1.2-0.3-1.4   c-0.2-0.2-0.7-0.4-1.5-0.4v-0.4h10.8l0.1,2.9H285c-0.2-0.9-0.4-1.5-0.8-1.7c-0.3-0.3-1.1-0.4-2.3-0.4h-2.7c-0.3,0-0.5,0.1-0.6,0.2   c-0.1,0.1-0.1,0.3-0.1,0.5v4.5h3.1c0.9,0,1.4-0.1,1.7-0.4c0.2-0.3,0.4-0.8,0.6-1.6h0.5v4.7h-0.5c-0.2-0.8-0.3-1.3-0.6-1.6   c-0.2-0.3-0.8-0.4-1.6-0.4h-3.1v5c0,0.4,0.1,0.6,0.4,0.7c0.3,0.1,1,0.1,2.3,0.1c1.4,0,2.4-0.1,3-0.4c0.7-0.3,1.2-1,1.8-2.2h0.6   l-0.9,3.4h-10.9V61.6z"></path>	<path class="st2" d="M300.2,61.6c0.8-0.1,1.4-0.3,1.6-0.6c0.2-0.3,0.4-1,0.4-2v-8.2c0-0.7-0.1-1.2-0.3-1.4   c-0.2-0.2-0.8-0.4-1.6-0.4v-0.4h4l4.7,10.2l4.5-10.2h4V49c-0.8,0.1-1.2,0.2-1.5,0.4c-0.2,0.2-0.3,0.7-0.3,1.4v9   c0,0.7,0.1,1.2,0.3,1.4c0.2,0.2,0.7,0.3,1.5,0.4V62h-5.7v-0.4c0.8-0.1,1.3-0.2,1.5-0.4c0.2-0.2,0.3-0.8,0.3-1.6v-9.1L308.4,62h-0.3   l-5.1-11V59c0,1.1,0.2,1.8,0.5,2.2c0.2,0.2,0.7,0.4,1.4,0.4V62h-4.8V61.6z"></path>	<path class="st2" d="M86.4,83.8c0.3,0.9,0.7,1.6,1.2,2.2c0.8,0.9,1.8,1.4,3,1.4c0.6,0,1.2-0.2,1.7-0.6c0.5-0.4,0.7-1,0.7-1.7   c0-0.7-0.2-1.2-0.7-1.7c-0.3-0.3-1-0.8-2-1.4l-1.7-1.1c-0.5-0.3-0.9-0.7-1.2-1c-0.6-0.6-0.9-1.3-0.9-2.1c0-1,0.3-1.9,1-2.5   c0.7-0.7,1.6-1,2.7-1c0.5,0,1,0.1,1.7,0.3c0.7,0.2,1,0.3,1.1,0.3c0.3,0,0.4-0.1,0.5-0.2c0.1-0.1,0.2-0.3,0.2-0.5h0.4l0.4,4.3h-0.5   c-0.3-1.3-0.9-2.2-1.6-2.7c-0.7-0.5-1.4-0.8-2.2-0.8c-0.6,0-1,0.2-1.5,0.5c-0.4,0.3-0.6,0.8-0.6,1.4c0,0.5,0.2,1,0.5,1.3   c0.3,0.4,0.8,0.8,1.5,1.2l1.8,1.1c1.1,0.7,1.9,1.3,2.4,1.9c0.4,0.6,0.7,1.3,0.7,2.1c0,1.1-0.4,1.9-1.2,2.7   c-0.8,0.7-1.8,1.1-3.1,1.1c-0.6,0-1.3-0.1-2-0.4c-0.7-0.2-1.1-0.4-1.2-0.4c-0.2,0-0.4,0.1-0.5,0.2C87.1,87.8,87,88,87,88.1h-0.4   l-0.6-4.3H86.4z"></path>	<path class="st2" d="M112.1,76c1.2-1.2,2.8-1.8,4.6-1.8c1.8,0,3.4,0.6,4.6,1.8c1.4,1.3,2,3,2,5.2c0,2.2-0.7,3.9-2.1,5.2   c-1.3,1.2-2.8,1.7-4.5,1.7c-1.9,0-3.5-0.6-4.7-1.9c-1.3-1.3-1.9-3-1.9-5C110.1,79.1,110.8,77.3,112.1,76 M113.6,85.9   c0.8,1,1.9,1.5,3.1,1.5c1.2,0,2.2-0.5,3.1-1.5c0.8-1,1.3-2.6,1.3-4.8c0-2.2-0.4-3.8-1.3-4.8c-0.9-1-1.9-1.5-3-1.5   c-1.2,0-2.2,0.5-3.1,1.5c-0.8,1-1.3,2.6-1.3,4.7C112.4,83.3,112.8,84.9,113.6,85.9"></path>	<path class="st2" d="M147,74.6c0.8,0.2,1.2,0.3,1.3,0.3c0.2,0,0.4-0.1,0.5-0.2c0.2-0.1,0.3-0.3,0.4-0.5h0.4l0.2,4.5h-0.5   c-0.3-0.9-0.6-1.6-1.1-2.2c-0.8-1-1.9-1.6-3.4-1.6c-1.4,0-2.6,0.6-3.5,1.7c-0.9,1.1-1.3,2.7-1.3,4.6c0,1.8,0.5,3.2,1.4,4.3   c1,1.1,2.1,1.6,3.6,1.6c1,0,2-0.2,2.9-0.8c0.5-0.3,1.1-0.7,1.7-1.3l0.4,0.4c-0.4,0.6-1,1.1-1.7,1.5c-1.1,0.7-2.4,1.1-3.7,1.1   c-2.2,0-3.9-0.7-5.2-2.1c-1.2-1.3-1.8-2.9-1.8-4.8c0-2,0.6-3.6,1.9-5c1.3-1.4,3-2.1,5.1-2.1C145.5,74.3,146.2,74.4,147,74.6"></path>	<path class="st2" d="M164.2,87.5c0.8-0.1,1.4-0.2,1.6-0.4c0.2-0.2,0.4-0.7,0.4-1.5v-9c0-0.7-0.1-1.2-0.4-1.4   c-0.2-0.2-0.8-0.3-1.6-0.4v-0.4h6v0.4c-0.8,0-1.4,0.2-1.6,0.4c-0.2,0.2-0.4,0.7-0.4,1.4v9c0,0.8,0.1,1.3,0.4,1.5   c0.2,0.2,0.8,0.3,1.6,0.4v0.4h-6V87.5z"></path>	<path class="st2" d="M184,87.5c0.7-0.1,1.2-0.2,1.4-0.4c0.2-0.2,0.3-0.7,0.3-1.4v-9c0-0.7-0.1-1.2-0.3-1.4   c-0.2-0.2-0.7-0.4-1.5-0.4v-0.4h10.8l0.1,2.9h-0.5c-0.2-0.9-0.4-1.5-0.8-1.7c-0.3-0.3-1.1-0.4-2.3-0.4h-2.7c-0.3,0-0.5,0-0.6,0.1   c-0.1,0.1-0.1,0.3-0.1,0.5v4.5h3.1c0.9,0,1.4-0.1,1.6-0.4c0.2-0.3,0.4-0.8,0.6-1.6h0.5v4.7h-0.5c-0.2-0.8-0.3-1.3-0.6-1.6   c-0.2-0.3-0.8-0.4-1.6-0.4h-3.1v5c0,0.4,0.1,0.6,0.4,0.7c0.3,0.1,1,0.1,2.3,0.1c1.4,0,2.4-0.1,3-0.4c0.7-0.3,1.2-1,1.8-2.2h0.6   l-0.9,3.4H184V87.5z"></path>	<path class="st2" d="M209.7,74.5h11.4l0.1,3.4h-0.5c-0.2-1.1-0.5-1.8-0.9-2.1c-0.4-0.3-1.1-0.5-2.3-0.5h-1.1v10.4   c0,0.8,0.1,1.3,0.4,1.5c0.2,0.2,0.8,0.3,1.6,0.4v0.4h-5.9v-0.4c0.9-0.1,1.4-0.2,1.6-0.4c0.2-0.2,0.3-0.8,0.3-1.6V75.4h-1.1   c-1.1,0-1.9,0.2-2.3,0.5c-0.4,0.3-0.7,1-0.9,2.1h-0.5L209.7,74.5z"></path>	<path class="st2" d="M240.9,74.5v0.4c-0.5,0-0.8,0-1.1,0.1c-0.2,0.1-0.4,0.3-0.4,0.6c0,0.1,0,0.2,0.1,0.3c0,0.1,0.1,0.3,0.3,0.5   l3,4.5l2.9-4.6c0.1-0.2,0.2-0.4,0.2-0.5c0-0.1,0.1-0.2,0.1-0.3c0-0.3-0.2-0.5-0.5-0.6c-0.2-0.1-0.5-0.1-1-0.1v-0.4h4.4v0.4   c-0.4,0-0.8,0.1-1.1,0.4c-0.5,0.4-1.1,1-1.7,1.9l-3,4.6v3.9c0,0.8,0.1,1.3,0.4,1.5c0.3,0.2,0.8,0.3,1.7,0.4v0.4h-6.2v-0.4   c0.9-0.1,1.5-0.2,1.7-0.4c0.2-0.2,0.3-0.8,0.3-1.7V82l-2.6-3.9c-0.9-1.3-1.6-2.2-1.9-2.6c-0.4-0.4-0.8-0.6-1.3-0.6v-0.4H240.9z"></path>	<path class="st2" d="M257.3,73.2c0.2-0.1,0.3-0.3,0.3-0.6c0-0.2-0.1-0.4-0.2-0.5c-0.1-0.1-0.3-0.2-0.6-0.2c-0.1,0-0.2,0-0.3,0.1   c-0.1,0-0.1,0.1-0.1,0.2v1C256.9,73.3,257.2,73.3,257.3,73.2 M255,71.5c0.5-0.5,1.2-0.8,1.9-0.8c0.8,0,1.4,0.3,1.9,0.8   c0.5,0.5,0.8,1.2,0.8,1.9c0,0.8-0.3,1.4-0.8,1.9c-0.5,0.5-1.2,0.8-1.9,0.8c-0.8,0-1.4-0.3-1.9-0.8c-0.5-0.5-0.8-1.2-0.8-1.9   C254.2,72.7,254.5,72.1,255,71.5 M255.2,75.2c0.5,0.5,1.1,0.7,1.7,0.7c0.7,0,1.2-0.2,1.7-0.7c0.5-0.5,0.7-1,0.7-1.7   c0-0.7-0.2-1.2-0.7-1.7c-0.5-0.5-1.1-0.7-1.7-0.7c-0.7,0-1.2,0.2-1.7,0.7c-0.5,0.5-0.7,1-0.7,1.7C254.5,74.1,254.7,74.7,255.2,75.2    M255.4,74.8c0.2,0,0.4,0,0.4,0c0.1,0,0.1-0.1,0.1-0.2v-2.3c0-0.1,0-0.2-0.1-0.2c-0.1,0-0.2,0-0.4,0v-0.2h1.6c0.4,0,0.7,0.1,1,0.2   c0.2,0.1,0.4,0.3,0.4,0.6c0,0.2-0.1,0.4-0.3,0.5c-0.2,0.1-0.5,0.2-0.8,0.3v0c0.4,0.1,0.6,0.4,0.7,0.8c0.1,0.4,0.2,0.6,0.3,0.6   c0.1,0,0.2-0.1,0.2-0.2c0-0.1,0-0.2,0.1-0.4h0.2c0,0.2-0.1,0.4-0.1,0.5c-0.1,0.2-0.3,0.3-0.6,0.3c-0.3,0-0.4-0.1-0.5-0.2   c-0.1-0.1-0.1-0.3-0.1-0.6c0-0.3-0.1-0.5-0.2-0.6c-0.1-0.1-0.4-0.1-0.7-0.1v1.1c0,0.1,0.1,0.2,0.2,0.2c0.1,0,0.2,0,0.4,0V75h-1.6   V74.8z"></path></g><g>	<path class="st2" d="M33.3,101.7l-0.9,3.8h-0.3l0-1c0-0.3-0.1-0.7-0.2-0.9c-0.1-0.3-0.3-0.5-0.5-0.7c-0.2-0.2-0.5-0.4-0.8-0.5   c-0.3-0.1-0.7-0.2-1.1-0.2c-1,0-1.9,0.3-2.7,0.8c-1,0.7-1.8,1.7-2.3,3.1c-0.5,1.1-0.7,2.2-0.7,3.3c0,1.1,0.3,2,1,2.7   c0.7,0.7,1.5,1,2.6,1c0.8,0,1.5-0.2,2.1-0.5c0.6-0.4,1.2-0.9,1.7-1.7h0.4c-0.6,1-1.3,1.8-2.1,2.2c-0.8,0.5-1.7,0.7-2.8,0.7   c-1,0-1.8-0.2-2.5-0.6c-0.7-0.4-1.3-1-1.7-1.7c-0.4-0.7-0.6-1.5-0.6-2.3c0-1.3,0.3-2.5,1-3.7c0.7-1.2,1.6-2.2,2.8-2.9   c1.2-0.7,2.4-1,3.6-1c0.6,0,1.2,0.1,1.9,0.4c0.3,0.1,0.5,0.2,0.7,0.2s0.3,0,0.4-0.1c0.1-0.1,0.3-0.2,0.5-0.5H33.3z"></path>	<path class="st2" d="M42.7,108.6c0,0.9-0.2,1.7-0.7,2.6c-0.5,0.8-1.1,1.5-1.9,2c-0.8,0.5-1.6,0.7-2.4,0.7c-0.8,0-1.4-0.3-1.9-0.8   c-0.5-0.5-0.7-1.2-0.7-2c0-0.8,0.2-1.7,0.7-2.6c0.5-0.9,1.1-1.5,2-2c0.8-0.5,1.6-0.7,2.4-0.7s1.4,0.3,1.9,0.8   C42.4,107.2,42.7,107.8,42.7,108.6z M41.2,108c0-0.5-0.1-0.9-0.4-1.2c-0.3-0.3-0.6-0.4-1-0.4c-0.8,0-1.6,0.6-2.3,1.8   c-0.7,1.2-1.1,2.4-1.1,3.6c0,0.5,0.1,1,0.4,1.3c0.3,0.3,0.6,0.4,1,0.4c0.8,0,1.6-0.6,2.3-1.8S41.2,109.3,41.2,108z"></path>	<path class="st2" d="M49,105.9l-1.2,3.9c1.1-1.6,1.9-2.7,2.5-3.2c0.6-0.5,1.1-0.8,1.7-0.8c0.3,0,0.5,0.1,0.7,0.3   c0.2,0.2,0.3,0.4,0.3,0.7c0,0.3-0.1,0.8-0.3,1.4l-1.1,3.6c-0.1,0.4-0.2,0.7-0.2,0.8c0,0.1,0,0.1,0.1,0.2c0,0.1,0.1,0.1,0.1,0.1   c0.1,0,0.2,0,0.3-0.1c0.3-0.2,0.6-0.6,1-1.1l0.3,0.2c-0.5,0.8-1,1.3-1.5,1.6c-0.3,0.2-0.6,0.3-0.9,0.3c-0.2,0-0.4-0.1-0.5-0.2   c-0.1-0.1-0.2-0.3-0.2-0.5c0-0.3,0.1-0.8,0.3-1.4l1-3.5c0.1-0.4,0.2-0.8,0.2-1c0-0.1,0-0.2-0.1-0.3c-0.1-0.1-0.2-0.1-0.3-0.1   c-0.2,0-0.4,0.1-0.6,0.2c-0.4,0.3-0.9,0.7-1.3,1.3c-0.5,0.6-0.9,1.4-1.5,2.3c-0.3,0.5-0.5,1-0.7,1.6l-0.4,1.4h-1.3l1.6-5.4   c0.2-0.7,0.3-1,0.3-1.2c0-0.1-0.1-0.2-0.2-0.3c-0.1-0.1-0.2-0.1-0.4-0.1c-0.1,0-0.2,0-0.4,0l-0.3,0.1l-0.1-0.3L49,105.9z"></path>	<path class="st2" d="M62.1,105.9l-0.5,2.7h-0.3c0-0.8-0.2-1.3-0.5-1.7c-0.3-0.4-0.7-0.5-1.1-0.5c-0.4,0-0.6,0.1-0.9,0.3   c-0.2,0.2-0.3,0.4-0.3,0.7c0,0.2,0,0.4,0.1,0.5c0.1,0.2,0.3,0.4,0.5,0.7c0.7,0.8,1.2,1.4,1.5,1.9c0.2,0.4,0.3,0.8,0.3,1.2   c0,0.6-0.2,1.1-0.7,1.6c-0.5,0.5-1.1,0.7-1.9,0.7c-0.4,0-0.9-0.1-1.4-0.3c-0.2-0.1-0.3-0.1-0.4-0.1c-0.3,0-0.5,0.1-0.6,0.4h-0.3   l0.5-2.8h0.3c0,0.9,0.2,1.5,0.5,1.9c0.3,0.4,0.8,0.5,1.3,0.5c0.4,0,0.8-0.1,1-0.4c0.3-0.2,0.4-0.5,0.4-0.9c0-0.2,0-0.4-0.1-0.6   c-0.2-0.3-0.5-0.8-1-1.4c-0.5-0.6-0.8-1.1-1-1.4c-0.1-0.3-0.2-0.6-0.2-0.9c0-0.6,0.2-1,0.6-1.4c0.4-0.4,0.9-0.6,1.6-0.6   c0.2,0,0.4,0,0.5,0c0.1,0,0.3,0.1,0.6,0.2c0.3,0.1,0.5,0.2,0.6,0.2c0.2,0,0.5-0.1,0.6-0.4H62.1z"></path>	<path class="st2" d="M72.7,106.1l-1.5,5.2c-0.2,0.8-0.3,1.3-0.3,1.5c0,0.1,0,0.2,0.1,0.2c0,0,0.1,0.1,0.2,0.1c0.1,0,0.2,0,0.3-0.1   c0.1-0.1,0.4-0.4,0.9-1.1l0.3,0.2c-0.5,0.7-0.9,1.3-1.4,1.6c-0.3,0.2-0.6,0.3-0.9,0.3c-0.2,0-0.4-0.1-0.5-0.2   c-0.1-0.1-0.2-0.3-0.2-0.5c0-0.2,0-0.5,0.1-0.8c0.1-0.4,0.4-1.4,0.8-2.8c-1,1.6-1.8,2.7-2.5,3.3c-0.7,0.6-1.3,0.9-1.8,0.9   c-0.3,0-0.5-0.1-0.7-0.3c-0.2-0.2-0.3-0.4-0.3-0.7c0-0.4,0.1-1.1,0.4-2l0.8-2.7c0.2-0.6,0.3-1,0.3-1.2c0-0.1,0-0.1-0.1-0.2   c0,0-0.1-0.1-0.2-0.1c-0.1,0-0.2,0-0.4,0.1c-0.1,0.1-0.4,0.4-0.8,1l-0.3-0.2c0.4-0.7,0.9-1.2,1.4-1.5c0.4-0.2,0.7-0.4,1-0.4   c0.2,0,0.4,0.1,0.5,0.2c0.1,0.1,0.2,0.3,0.2,0.5c0,0.3-0.1,0.9-0.3,1.7l-0.8,2.8c-0.2,0.8-0.3,1.2-0.3,1.4c0,0.1,0,0.2,0.1,0.3   c0.1,0.1,0.2,0.1,0.3,0.1c0.2,0,0.4-0.1,0.7-0.3c0.3-0.2,0.7-0.6,1.2-1.3c0.5-0.7,0.9-1.3,1.3-1.8c0.3-0.6,0.7-1.5,1.1-2.7l0.2-0.7   H72.7z"></path>	<path class="st2" d="M78.8,105.9l-1.1,3.9c0.5-0.9,0.9-1.6,1.3-2.1c0.5-0.7,1.1-1.2,1.6-1.6c0.3-0.2,0.6-0.3,1-0.3   c0.3,0,0.5,0.1,0.7,0.3c0.2,0.2,0.3,0.4,0.3,0.7c0,0.3-0.1,0.7-0.2,1.1l-0.6,2.2c0.9-1.8,1.8-3,2.7-3.7c0.5-0.4,0.9-0.6,1.4-0.6   c0.3,0,0.5,0.1,0.7,0.3c0.2,0.2,0.3,0.5,0.3,0.8c0,0.3-0.1,0.7-0.2,1.1l-1,3.4c-0.2,0.7-0.3,1.1-0.3,1.2c0,0.1,0,0.1,0.1,0.2   c0,0,0.1,0.1,0.1,0.1c0.1,0,0.2-0.1,0.3-0.2c0.3-0.3,0.6-0.6,0.9-1L87,112c-0.1,0.2-0.4,0.5-0.8,1c-0.4,0.4-0.7,0.7-0.9,0.8   c-0.3,0.1-0.5,0.2-0.7,0.2c-0.2,0-0.4-0.1-0.5-0.2c-0.1-0.1-0.2-0.3-0.2-0.5c0-0.3,0.1-0.8,0.4-1.7l0.8-2.8c0.2-0.6,0.3-1,0.3-1.1   c0-0.1,0-0.2,0-0.3c0-0.1,0-0.3-0.1-0.3c-0.1-0.1-0.1-0.1-0.2-0.1c-0.2,0-0.5,0.1-0.8,0.4c-0.8,0.7-1.5,1.8-2.2,3.1   c-0.5,0.9-0.9,2-1.3,3.3h-1.3l1.5-5.2c0.2-0.6,0.2-0.9,0.2-1.1c0-0.2,0-0.3-0.1-0.3c-0.1-0.1-0.1-0.1-0.2-0.1   c-0.2,0-0.4,0.1-0.6,0.2c-0.3,0.2-0.8,0.7-1.3,1.4c-0.5,0.7-1,1.4-1.3,2.1c-0.1,0.3-0.5,1.3-1,3.1h-1.3l1.6-5.6l0.2-0.7   c0-0.1,0.1-0.2,0.1-0.2c0-0.1-0.1-0.2-0.2-0.3c-0.1-0.1-0.3-0.2-0.4-0.2c-0.1,0-0.3,0-0.6,0.1l-0.1-0.3L78.8,105.9z"></path>	<path class="st2" d="M91.7,110.5c0,0.3-0.1,0.5-0.1,0.7c0,0.5,0.2,1,0.5,1.3c0.4,0.4,0.8,0.5,1.3,0.5c0.4,0,0.8-0.1,1.2-0.3   c0.4-0.2,1-0.5,1.7-1.1l0.2,0.3c-1.4,1.4-2.7,2-3.9,2c-0.8,0-1.5-0.3-1.9-0.8c-0.4-0.5-0.6-1.1-0.6-1.8c0-0.9,0.3-1.7,0.8-2.6   c0.5-0.9,1.2-1.6,2-2.1c0.8-0.5,1.6-0.7,2.5-0.7c0.6,0,1.1,0.1,1.4,0.4c0.3,0.2,0.4,0.5,0.4,0.9c0,0.5-0.2,0.9-0.6,1.4   c-0.5,0.6-1.2,1-2.2,1.4C93.7,110.2,92.8,110.4,91.7,110.5z M91.7,110.1c0.9-0.1,1.5-0.3,2.1-0.5c0.7-0.3,1.2-0.7,1.6-1.1   c0.4-0.4,0.5-0.9,0.5-1.3c0-0.2-0.1-0.4-0.2-0.6c-0.2-0.1-0.4-0.2-0.7-0.2c-0.6,0-1.2,0.3-1.9,0.9C92.5,107.9,92,108.8,91.7,110.1z   "></path>	<path class="st2" d="M100.1,106.4l3-0.5l-1.2,4.2c1-1.7,1.9-2.9,2.8-3.6c0.5-0.4,0.8-0.6,1.1-0.6c0.2,0,0.3,0.1,0.4,0.2   c0.1,0.1,0.2,0.3,0.2,0.5c0,0.4-0.1,0.7-0.3,1.1c-0.1,0.3-0.3,0.4-0.6,0.4c-0.1,0-0.2,0-0.3-0.1c-0.1-0.1-0.2-0.2-0.2-0.4   c0-0.1,0-0.2-0.1-0.2c0,0-0.1-0.1-0.2-0.1c-0.1,0-0.2,0-0.3,0.1c-0.1,0.1-0.4,0.3-0.7,0.7c-0.5,0.6-1,1.3-1.6,2.2   c-0.2,0.4-0.4,0.8-0.6,1.3c-0.2,0.7-0.4,1.1-0.4,1.2l-0.3,1.1h-1.3l1.6-5.4c0.2-0.6,0.3-1.1,0.3-1.3c0-0.1,0-0.2-0.1-0.3   c-0.1-0.1-0.3-0.1-0.5-0.1c-0.1,0-0.3,0-0.7,0.1L100.1,106.4z"></path>	<path class="st2" d="M116.8,102h4.6c1.2,0,2.1,0.3,2.7,0.8c0.6,0.5,0.9,1.2,0.9,1.9c0,0.6-0.2,1.2-0.6,1.7c-0.4,0.6-0.9,1-1.7,1.4   c-0.7,0.3-1.6,0.5-2.4,0.5c-0.5,0-1.2-0.1-2.1-0.3l-0.9,3.2c-0.2,0.8-0.3,1.3-0.3,1.5c0,0.2,0.1,0.3,0.2,0.5   c0.2,0.1,0.5,0.2,1.1,0.2l-0.1,0.3h-4.7l0.1-0.3c0.6,0,1-0.1,1.3-0.3c0.2-0.2,0.5-0.8,0.8-1.7l1.9-6.7c0.2-0.8,0.3-1.3,0.3-1.6   c0-0.2-0.1-0.4-0.2-0.5c-0.2-0.1-0.5-0.2-1.1-0.2L116.8,102z M118.4,107.5c0.7,0.2,1.2,0.3,1.6,0.3c0.6,0,1.2-0.1,1.7-0.4   c0.5-0.3,0.9-0.6,1.2-1.2c0.3-0.5,0.4-1.1,0.4-1.6c0-0.6-0.2-1-0.5-1.4c-0.4-0.3-0.9-0.5-1.6-0.5c-0.4,0-0.9,0-1.4,0.1L118.4,107.5   z"></path>	<path class="st2" d="M127.5,106.4l3-0.5l-1.2,4.2c1-1.7,1.9-2.9,2.8-3.6c0.5-0.4,0.8-0.6,1.1-0.6c0.2,0,0.3,0.1,0.4,0.2   c0.1,0.1,0.2,0.3,0.2,0.5c0,0.4-0.1,0.7-0.3,1.1c-0.1,0.3-0.3,0.4-0.6,0.4c-0.1,0-0.2,0-0.3-0.1c-0.1-0.1-0.2-0.2-0.2-0.4   c0-0.1,0-0.2-0.1-0.2c0,0-0.1-0.1-0.2-0.1c-0.1,0-0.2,0-0.3,0.1c-0.1,0.1-0.4,0.3-0.7,0.7c-0.5,0.6-1,1.3-1.6,2.2   c-0.2,0.4-0.4,0.8-0.6,1.3c-0.2,0.7-0.4,1.1-0.4,1.2l-0.3,1.1H127l1.6-5.4c0.2-0.6,0.3-1.1,0.3-1.3c0-0.1,0-0.2-0.1-0.3   c-0.1-0.1-0.3-0.1-0.5-0.1c-0.1,0-0.3,0-0.7,0.1L127.5,106.4z"></path>	<path class="st2" d="M143.5,108.6c0,0.9-0.2,1.7-0.7,2.6c-0.5,0.8-1.1,1.5-1.9,2c-0.8,0.5-1.6,0.7-2.4,0.7c-0.8,0-1.4-0.3-1.9-0.8   c-0.5-0.5-0.7-1.2-0.7-2c0-0.8,0.2-1.7,0.7-2.6c0.5-0.9,1.1-1.5,2-2c0.8-0.5,1.6-0.7,2.4-0.7s1.4,0.3,1.9,0.8   C143.2,107.2,143.5,107.8,143.5,108.6z M142,108c0-0.5-0.1-0.9-0.4-1.2c-0.3-0.3-0.6-0.4-1-0.4c-0.8,0-1.6,0.6-2.3,1.8   c-0.7,1.2-1.1,2.4-1.1,3.6c0,0.5,0.1,1,0.4,1.3c0.3,0.3,0.6,0.4,1,0.4c0.8,0,1.6-0.6,2.3-1.8C141.7,110.5,142,109.3,142,108z"></path>	<path class="st2" d="M150.5,103.8l-0.7,2.4h1.4l-0.1,0.5h-1.3l-1.5,5.1c-0.2,0.5-0.2,0.9-0.2,1.1c0,0.1,0,0.2,0.1,0.2   c0,0.1,0.1,0.1,0.2,0.1c0.1,0,0.3-0.1,0.6-0.3c0.1-0.1,0.4-0.5,0.9-1.1l0.3,0.2c-0.5,0.8-1,1.3-1.5,1.6c-0.3,0.2-0.6,0.3-1,0.3   c-0.3,0-0.5-0.1-0.6-0.2c-0.2-0.2-0.2-0.4-0.2-0.6c0-0.3,0.1-0.8,0.3-1.4l1.4-5H147l0.1-0.3c0.6-0.2,1.2-0.4,1.6-0.8   c0.4-0.3,0.9-0.9,1.4-1.8H150.5z"></path>	<path class="st2" d="M154.7,110.5c0,0.3-0.1,0.5-0.1,0.7c0,0.5,0.2,1,0.5,1.3c0.4,0.4,0.8,0.5,1.3,0.5c0.4,0,0.8-0.1,1.2-0.3   c0.4-0.2,1-0.5,1.7-1.1l0.2,0.3c-1.4,1.4-2.7,2-3.9,2c-0.8,0-1.5-0.3-1.9-0.8c-0.4-0.5-0.6-1.1-0.6-1.8c0-0.9,0.3-1.7,0.8-2.6   c0.5-0.9,1.2-1.6,2-2.1c0.8-0.5,1.6-0.7,2.5-0.7c0.6,0,1.1,0.1,1.4,0.4c0.3,0.2,0.4,0.5,0.4,0.9c0,0.5-0.2,0.9-0.6,1.4   c-0.5,0.6-1.2,1-2.2,1.4C156.8,110.2,155.9,110.4,154.7,110.5z M154.8,110.1c0.9-0.1,1.5-0.3,2.1-0.5c0.7-0.3,1.2-0.7,1.6-1.1   c0.4-0.4,0.5-0.9,0.5-1.3c0-0.2-0.1-0.4-0.2-0.6c-0.2-0.1-0.4-0.2-0.7-0.2c-0.6,0-1.2,0.3-1.9,0.9   C155.5,107.9,155.1,108.8,154.8,110.1z"></path>	<path class="st2" d="M169.1,111.9c-0.6,0.7-1.2,1.2-1.8,1.6c-0.6,0.3-1.3,0.5-1.9,0.5c-0.8,0-1.5-0.2-1.9-0.7   c-0.5-0.5-0.7-1.1-0.7-1.9c0-0.9,0.2-1.8,0.7-2.6c0.5-0.9,1.2-1.5,2-2.1c0.8-0.5,1.7-0.8,2.5-0.8c0.6,0,1.1,0.1,1.4,0.4   c0.3,0.3,0.5,0.6,0.5,1c0,0.4-0.1,0.7-0.3,0.9c-0.2,0.2-0.4,0.3-0.6,0.3c-0.2,0-0.3-0.1-0.4-0.2c-0.1-0.1-0.2-0.3-0.2-0.4   c0-0.1,0-0.2,0.1-0.3c0-0.1,0.1-0.2,0.3-0.3c0.1-0.1,0.2-0.2,0.2-0.3c0-0.1,0-0.1,0-0.2c0-0.1-0.1-0.2-0.2-0.3   c-0.2-0.1-0.4-0.2-0.7-0.2c-0.6,0-1.1,0.2-1.7,0.6c-0.6,0.4-1,1-1.4,1.7c-0.5,0.9-0.7,1.8-0.7,2.7c0,0.6,0.2,1.1,0.5,1.4   c0.3,0.3,0.8,0.5,1.4,0.5c0.4,0,0.9-0.1,1.3-0.3c0.4-0.2,0.9-0.6,1.5-1.2L169.1,111.9z"></path>	<path class="st2" d="M176.4,103.8l-0.7,2.4h1.4l-0.1,0.5h-1.3l-1.5,5.1c-0.2,0.5-0.2,0.9-0.2,1.1c0,0.1,0,0.2,0.1,0.2   c0,0.1,0.1,0.1,0.2,0.1c0.1,0,0.3-0.1,0.6-0.3c0.1-0.1,0.4-0.5,0.9-1.1l0.3,0.2c-0.5,0.8-1,1.3-1.5,1.6c-0.3,0.2-0.6,0.3-1,0.3   c-0.3,0-0.5-0.1-0.6-0.2c-0.2-0.2-0.2-0.4-0.2-0.6c0-0.3,0.1-0.8,0.3-1.4l1.4-5H173l0.1-0.3c0.6-0.2,1.2-0.4,1.6-0.8   c0.4-0.3,0.9-0.9,1.4-1.8H176.4z"></path>	<path class="st2" d="M182.6,105.9l-1.7,6.1c-0.1,0.4-0.2,0.7-0.2,0.7c0,0.1,0,0.2,0.1,0.2c0.1,0.1,0.1,0.1,0.2,0.1   c0.1,0,0.2,0,0.3-0.1c0.3-0.3,0.7-0.6,1-1.1l0.3,0.2c-0.4,0.6-0.9,1.1-1.4,1.5c-0.4,0.3-0.8,0.5-1.1,0.5c-0.2,0-0.4-0.1-0.6-0.2   c-0.2-0.1-0.2-0.3-0.2-0.5s0.1-0.6,0.2-1.1l1.1-3.9c0.2-0.6,0.3-1,0.3-1.2c0-0.1,0-0.2-0.1-0.3c-0.1-0.1-0.2-0.1-0.4-0.1   c-0.1,0-0.4,0-0.8,0.1v-0.3L182.6,105.9z M182.5,102.5c0.2,0,0.4,0.1,0.6,0.3c0.2,0.2,0.3,0.4,0.3,0.6c0,0.2-0.1,0.4-0.3,0.6   c-0.2,0.2-0.4,0.3-0.6,0.3c-0.2,0-0.4-0.1-0.6-0.3c-0.2-0.2-0.3-0.4-0.3-0.6c0-0.2,0.1-0.4,0.2-0.6   C182.1,102.6,182.3,102.5,182.5,102.5z"></path>	<path class="st2" d="M193.4,108.6c0,0.9-0.2,1.7-0.7,2.6c-0.5,0.8-1.1,1.5-1.9,2c-0.8,0.5-1.6,0.7-2.4,0.7c-0.8,0-1.4-0.3-1.9-0.8   c-0.5-0.5-0.7-1.2-0.7-2c0-0.8,0.2-1.7,0.7-2.6c0.5-0.9,1.1-1.5,2-2c0.8-0.5,1.6-0.7,2.4-0.7c0.8,0,1.4,0.3,1.9,0.8   C193.2,107.2,193.4,107.8,193.4,108.6z M192,108c0-0.5-0.1-0.9-0.4-1.2c-0.3-0.3-0.6-0.4-1-0.4c-0.8,0-1.6,0.6-2.3,1.8   c-0.7,1.2-1.1,2.4-1.1,3.6c0,0.5,0.1,1,0.4,1.3c0.3,0.3,0.6,0.4,1,0.4c0.8,0,1.6-0.6,2.3-1.8C191.6,110.5,192,109.3,192,108z"></path>	<path class="st2" d="M199.8,105.9l-1.2,3.9c1.1-1.6,1.9-2.7,2.5-3.2c0.6-0.5,1.1-0.8,1.7-0.8c0.3,0,0.5,0.1,0.7,0.3   c0.2,0.2,0.3,0.4,0.3,0.7c0,0.3-0.1,0.8-0.3,1.4l-1.1,3.6c-0.1,0.4-0.2,0.7-0.2,0.8c0,0.1,0,0.1,0.1,0.2c0,0.1,0.1,0.1,0.1,0.1   c0.1,0,0.2,0,0.3-0.1c0.3-0.2,0.6-0.6,1-1.1l0.3,0.2c-0.5,0.8-1,1.3-1.5,1.6c-0.3,0.2-0.6,0.3-0.9,0.3c-0.2,0-0.4-0.1-0.5-0.2   c-0.1-0.1-0.2-0.3-0.2-0.5c0-0.3,0.1-0.8,0.3-1.4l1-3.5c0.1-0.4,0.2-0.8,0.2-1c0-0.1,0-0.2-0.1-0.3c-0.1-0.1-0.2-0.1-0.3-0.1   c-0.2,0-0.4,0.1-0.6,0.2c-0.4,0.3-0.9,0.7-1.3,1.3c-0.5,0.6-0.9,1.4-1.5,2.3c-0.3,0.5-0.5,1-0.7,1.6l-0.4,1.4h-1.3l1.6-5.4   c0.2-0.7,0.3-1,0.3-1.2c0-0.1-0.1-0.2-0.2-0.3c-0.1-0.1-0.2-0.1-0.4-0.1c-0.1,0-0.2,0-0.4,0l-0.3,0.1l-0.1-0.3L199.8,105.9z"></path>	<path class="st2" d="M212.8,114l1-4.4h0.3c0,0.4-0.1,0.8-0.1,1c0,0.8,0.3,1.4,0.8,1.9c0.5,0.5,1.2,0.7,2,0.7c0.8,0,1.3-0.2,1.7-0.7   c0.4-0.5,0.6-1,0.6-1.6c0-0.4-0.1-0.7-0.3-1.1c-0.3-0.5-1-1.3-2.2-2.5c-0.6-0.6-0.9-1-1.1-1.3c-0.3-0.5-0.4-1-0.4-1.5   c0-0.8,0.3-1.5,0.9-2.1c0.6-0.6,1.4-0.9,2.4-0.9c0.3,0,0.6,0,0.9,0.1c0.2,0,0.5,0.1,1,0.3c0.3,0.1,0.5,0.2,0.6,0.2   c0.1,0,0.2,0,0.3,0c0.2,0,0.3,0,0.4-0.1c0.1-0.1,0.3-0.3,0.4-0.6h0.3l-0.9,3.9h-0.3c0-0.3,0-0.6,0-0.8c0-0.7-0.2-1.3-0.7-1.7   c-0.5-0.4-1.1-0.7-1.8-0.7c-0.6,0-1.1,0.2-1.5,0.5c-0.4,0.4-0.6,0.8-0.6,1.2c0,0.4,0.1,0.8,0.4,1.2c0.2,0.4,0.8,1,1.7,1.8   c0.9,0.8,1.4,1.5,1.7,1.9c0.3,0.5,0.4,1,0.4,1.5c0,0.6-0.2,1.2-0.5,1.7c-0.3,0.6-0.8,1-1.4,1.3c-0.6,0.3-1.2,0.5-1.9,0.5   c-0.3,0-0.7,0-1-0.1c-0.3-0.1-0.8-0.2-1.4-0.5c-0.2-0.1-0.4-0.1-0.6-0.1c-0.3,0-0.6,0.2-0.8,0.7H212.8z"></path>	<path class="st2" d="M227.4,105.9l-1.7,6.1c-0.1,0.4-0.2,0.7-0.2,0.7c0,0.1,0,0.2,0.1,0.2c0.1,0.1,0.1,0.1,0.2,0.1   c0.1,0,0.2,0,0.3-0.1c0.3-0.3,0.7-0.6,1-1.1l0.3,0.2c-0.4,0.6-0.9,1.1-1.4,1.5c-0.4,0.3-0.8,0.5-1.1,0.5c-0.2,0-0.4-0.1-0.6-0.2   c-0.2-0.1-0.2-0.3-0.2-0.5s0.1-0.6,0.2-1.1l1.1-3.9c0.2-0.6,0.3-1,0.3-1.2c0-0.1,0-0.2-0.1-0.3c-0.1-0.1-0.2-0.1-0.4-0.1   c-0.1,0-0.4,0-0.8,0.1v-0.3L227.4,105.9z M227.2,102.5c0.2,0,0.4,0.1,0.6,0.3c0.2,0.2,0.3,0.4,0.3,0.6c0,0.2-0.1,0.4-0.3,0.6   c-0.2,0.2-0.4,0.3-0.6,0.3c-0.2,0-0.4-0.1-0.6-0.3c-0.2-0.2-0.3-0.4-0.3-0.6c0-0.2,0.1-0.4,0.2-0.6   C226.8,102.6,227,102.5,227.2,102.5z"></path>	<path class="st2" d="M233.9,105.9l-1.2,3.9c1.1-1.6,1.9-2.7,2.5-3.2c0.6-0.5,1.1-0.8,1.7-0.8c0.3,0,0.5,0.1,0.7,0.3   c0.2,0.2,0.3,0.4,0.3,0.7c0,0.3-0.1,0.8-0.3,1.4l-1.1,3.6c-0.1,0.4-0.2,0.7-0.2,0.8c0,0.1,0,0.1,0.1,0.2c0,0.1,0.1,0.1,0.1,0.1   c0.1,0,0.2,0,0.3-0.1c0.3-0.2,0.6-0.6,1-1.1l0.3,0.2c-0.5,0.8-1,1.3-1.5,1.6c-0.3,0.2-0.6,0.3-0.9,0.3c-0.2,0-0.4-0.1-0.5-0.2   c-0.1-0.1-0.2-0.3-0.2-0.5c0-0.3,0.1-0.8,0.3-1.4l1-3.5c0.1-0.4,0.2-0.8,0.2-1c0-0.1,0-0.2-0.1-0.3c-0.1-0.1-0.2-0.1-0.3-0.1   c-0.2,0-0.4,0.1-0.6,0.2c-0.4,0.3-0.9,0.7-1.3,1.3c-0.5,0.6-0.9,1.4-1.5,2.3c-0.3,0.5-0.5,1-0.7,1.6l-0.4,1.4h-1.3l1.6-5.4   c0.2-0.7,0.3-1,0.3-1.2c0-0.1-0.1-0.2-0.2-0.3c-0.1-0.1-0.2-0.1-0.4-0.1c-0.1,0-0.2,0-0.4,0l-0.3,0.1l-0.1-0.3L233.9,105.9z"></path>	<path class="st2" d="M247.4,111.9c-0.6,0.7-1.2,1.2-1.8,1.6c-0.6,0.3-1.3,0.5-1.9,0.5c-0.8,0-1.5-0.2-1.9-0.7   c-0.5-0.5-0.7-1.1-0.7-1.9c0-0.9,0.2-1.8,0.7-2.6c0.5-0.9,1.2-1.5,2-2.1c0.8-0.5,1.7-0.8,2.5-0.8c0.6,0,1.1,0.1,1.4,0.4   c0.3,0.3,0.5,0.6,0.5,1c0,0.4-0.1,0.7-0.3,0.9c-0.2,0.2-0.4,0.3-0.6,0.3c-0.2,0-0.3-0.1-0.4-0.2c-0.1-0.1-0.2-0.3-0.2-0.4   c0-0.1,0-0.2,0.1-0.3c0-0.1,0.1-0.2,0.3-0.3c0.1-0.1,0.2-0.2,0.2-0.3c0-0.1,0-0.1,0-0.2c0-0.1-0.1-0.2-0.2-0.3   c-0.2-0.1-0.4-0.2-0.7-0.2c-0.6,0-1.1,0.2-1.7,0.6c-0.6,0.4-1,1-1.4,1.7c-0.5,0.9-0.7,1.8-0.7,2.7c0,0.6,0.2,1.1,0.5,1.4   c0.3,0.3,0.8,0.5,1.4,0.5c0.4,0,0.9-0.1,1.3-0.3c0.4-0.2,0.9-0.6,1.5-1.2L247.4,111.9z"></path>	<path class="st2" d="M252.3,110.5c0,0.3-0.1,0.5-0.1,0.7c0,0.5,0.2,1,0.5,1.3c0.4,0.4,0.8,0.5,1.3,0.5c0.4,0,0.8-0.1,1.2-0.3   c0.4-0.2,1-0.5,1.7-1.1l0.2,0.3c-1.4,1.4-2.7,2-3.9,2c-0.8,0-1.5-0.3-1.9-0.8c-0.4-0.5-0.6-1.1-0.6-1.8c0-0.9,0.3-1.7,0.8-2.6   c0.5-0.9,1.2-1.6,2-2.1c0.8-0.5,1.6-0.7,2.5-0.7c0.6,0,1.1,0.1,1.4,0.4c0.3,0.2,0.4,0.5,0.4,0.9c0,0.5-0.2,0.9-0.6,1.4   c-0.5,0.6-1.2,1-2.2,1.4C254.4,110.2,253.5,110.4,252.3,110.5z M252.4,110.1c0.9-0.1,1.5-0.3,2.1-0.5c0.7-0.3,1.2-0.7,1.6-1.1   c0.4-0.4,0.5-0.9,0.5-1.3c0-0.2-0.1-0.4-0.2-0.6c-0.2-0.1-0.4-0.2-0.7-0.2c-0.6,0-1.2,0.3-1.9,0.9   C253.2,107.9,252.7,108.8,252.4,110.1z"></path>	<path class="st2" d="M273.4,101.8l-2.8,9.7c-0.2,0.6-0.2,1-0.2,1.2c0,0.2,0.1,0.4,0.2,0.5c0.1,0.1,0.5,0.2,1,0.2l-0.1,0.3h-4.5   l0.1-0.3c0.5,0,0.8,0,0.9-0.1c0.2-0.1,0.4-0.2,0.5-0.4c0.2-0.3,0.4-0.7,0.6-1.4l2-7c0.1-0.4,0.2-0.7,0.2-0.7c0-0.1,0-0.2,0-0.3   c0-0.2-0.1-0.4-0.2-0.5c-0.1-0.1-0.3-0.2-0.5-0.2c-0.2,0-0.4,0-0.7,0.1l-0.1-0.3l2.9-0.8H273.4z"></path>	<path class="st2" d="M277.2,114v-0.3c0.6-0.1,1.1-0.3,1.5-0.6c0.8-0.4,1.5-1,2.1-1.6c0.6-0.6,1.2-1.4,1.7-2.2   c-0.4,0.2-0.6,0.3-0.8,0.3c-0.2,0.1-0.4,0.1-0.7,0.1c-0.9,0-1.5-0.3-2-0.9c-0.5-0.6-0.7-1.3-0.7-2.1c0-1.4,0.4-2.6,1.3-3.5   c0.9-1,1.8-1.5,2.9-1.5c0.9,0,1.6,0.3,2.1,1c0.5,0.7,0.7,1.5,0.7,2.4c0,1.2-0.3,2.3-0.8,3.5c-0.5,1.1-1.3,2.1-2.2,2.9   c-0.9,0.8-1.9,1.4-2.9,1.8C278.8,113.7,278.1,113.9,277.2,114z M282.9,108.6c0.8-1.6,1.2-3.1,1.2-4.4c0-0.6-0.2-1.1-0.5-1.5   c-0.3-0.3-0.7-0.5-1.1-0.5c-0.7,0-1.3,0.5-1.9,1.4c-0.6,1-0.8,2.1-0.8,3.4c0,0.7,0.2,1.2,0.5,1.6c0.3,0.4,0.7,0.5,1.2,0.5   c0.2,0,0.4,0,0.6-0.1C282.4,109,282.6,108.8,282.9,108.6z"></path>	<path class="st2" d="M290,107.3v-0.2c1.4-0.2,2.4-0.6,3.1-1.2c0.5-0.4,0.7-1,0.7-1.6c0-0.5-0.1-0.8-0.4-1.1c-0.3-0.3-0.6-0.4-1-0.4   c-0.6,0-1.2,0.4-1.7,1.2l-0.3-0.1c0.3-0.7,0.7-1.2,1.2-1.5c0.5-0.3,1-0.5,1.5-0.5c0.7,0,1.2,0.2,1.7,0.6c0.4,0.4,0.6,0.9,0.6,1.5   c0,0.5-0.2,1-0.6,1.5c-0.4,0.5-1.1,0.9-2,1.3c0.6,0.2,1.1,0.6,1.4,1.1c0.3,0.5,0.5,1,0.5,1.7c0,0.7-0.2,1.4-0.6,2.2   c-0.4,0.7-1,1.3-1.7,1.7c-0.7,0.4-1.5,0.6-2.3,0.6c-0.7,0-1.3-0.1-1.7-0.4c-0.2-0.2-0.4-0.4-0.4-0.6c0-0.2,0.1-0.4,0.2-0.5   c0.1-0.1,0.3-0.2,0.5-0.2c0.1,0,0.3,0,0.4,0.1c0.1,0,0.3,0.1,0.7,0.3c0.4,0.2,0.6,0.3,0.8,0.4c0.2,0.1,0.4,0.1,0.6,0.1   c0.5,0,0.9-0.3,1.3-0.9c0.3-0.6,0.5-1.2,0.5-1.9c0-0.6-0.1-1-0.3-1.5c-0.2-0.4-0.6-0.8-1.1-1.1C291.1,107.5,290.6,107.4,290,107.3z   "></path>	<path class="st2" d="M306.5,102l-2.2,7.7h1.4l-0.3,1.1H304l-0.9,3.1h-1.3l0.9-3.1h-4.2l0.4-1.2l7-7.6H306.5z M304.6,104.2l-5,5.5   h3.5L304.6,104.2z"></path></g><path class="st2" d="M311.3,102.6c0.1-0.1,0.2-0.2,0.2-0.4c0-0.1,0-0.2-0.1-0.3c-0.1-0.1-0.2-0.1-0.3-0.1c-0.1,0-0.1,0-0.2,0  c0,0-0.1,0.1-0.1,0.1v0.6C311,102.7,311.2,102.7,311.3,102.6 M309.9,101.6c0.3-0.3,0.7-0.5,1.1-0.5c0.4,0,0.8,0.2,1.1,0.5  c0.3,0.3,0.5,0.7,0.5,1.1c0,0.4-0.2,0.8-0.5,1.1c-0.3,0.3-0.7,0.5-1.1,0.5c-0.4,0-0.8-0.2-1.1-0.5c-0.3-0.3-0.5-0.7-0.5-1.1  C309.4,102.3,309.6,101.9,309.9,101.6 M310,103.8c0.3,0.3,0.6,0.4,1,0.4c0.4,0,0.7-0.1,1-0.4c0.3-0.3,0.4-0.6,0.4-1s-0.1-0.7-0.4-1  c-0.3-0.3-0.6-0.4-1-0.4c-0.4,0-0.7,0.1-1,0.4c-0.3,0.3-0.4,0.6-0.4,1S309.8,103.5,310,103.8 M310.1,103.6c0.1,0,0.2,0,0.2,0  c0,0,0.1-0.1,0.1-0.1v-1.4c0-0.1,0-0.1-0.1-0.1c0,0-0.1,0-0.2,0v-0.1h0.9c0.2,0,0.4,0,0.6,0.1c0.1,0.1,0.2,0.2,0.2,0.4  c0,0.1-0.1,0.2-0.2,0.3c-0.1,0.1-0.3,0.1-0.5,0.2v0c0.2,0.1,0.4,0.2,0.4,0.5c0.1,0.2,0.1,0.4,0.2,0.4c0.1,0,0.1,0,0.1-0.1  c0,0,0-0.1,0-0.2h0.1c0,0.1,0,0.2-0.1,0.3c-0.1,0.1-0.2,0.2-0.3,0.2c-0.1,0-0.2,0-0.3-0.1c0-0.1-0.1-0.2-0.1-0.4  c0-0.2-0.1-0.3-0.1-0.4c-0.1-0.1-0.2-0.1-0.4-0.1v0.6c0,0.1,0,0.1,0.1,0.1c0,0,0.1,0,0.2,0v0.1h-0.9V103.6z"></path></svg>